<svg width="48" height="31" viewBox="0 0 48 31" fill="none" xmlns="http://www.w3.org/2000/svg">
<path d="M43 31L48 24H43V31Z" fill="#FF881A"/>
<path d="M0 0H48V24H0L9 12L0 0Z" fill="#FFD700"/>
<path d="M21.094 17H19.54L19.946 14.312H18.322L18.56 12.884H20.156L20.366 11.414H18.742L18.966 9.986H20.576L20.968 7.424H22.522L22.13 9.986H23.698L24.09 7.424H25.63L25.252 9.986H26.862L26.638 11.414H25.042L24.818 12.884H26.456L26.232 14.312H24.608L24.202 17H22.662L23.054 14.312H21.486L21.094 17ZM21.906 11.386L21.668 12.912H23.292L23.53 11.386H21.906ZM31.9612 17H30.1272V9.58L28.4332 10.294L27.7612 8.74L30.5752 7.424H31.9612V17Z" fill="white"/>
</svg>
