<svg width="48" height="31" viewBox="0 0 48 31" fill="none" xmlns="http://www.w3.org/2000/svg">
<path d="M43 31L48 24H43V31Z" fill="#9E360F"/>
<path d="M0 0H48V24H0L9 12L0 0Z" fill="#FF4500"/>
<path d="M20.1799 17H18.6259L19.0319 14.312H17.4079L17.6459 12.884H19.2419L19.4519 11.414H17.8279L18.0519 9.986H19.6619L20.0539 7.424H21.6079L21.2159 9.986H22.7839L23.1759 7.424H24.7159L24.3379 9.986H25.9479L25.7239 11.414H24.1279L23.9039 12.884H25.5419L25.3179 14.312H23.6939L23.2879 17H21.7479L22.1399 14.312H20.5719L20.1799 17ZM20.9919 11.386L20.7539 12.912H22.3779L22.6159 11.386H20.9919ZM33.0911 17H31.2711V15.236H26.8471V13.752L31.1031 7.424H33.0911V13.528H34.2951V15.236H33.0911V17ZM31.2711 13.528V10.154H31.1591L28.8771 13.528H31.2711Z" fill="white"/>
</svg>
