<svg width="12" height="12" viewBox="0 0 12 12" fill="none" xmlns="http://www.w3.org/2000/svg">
<path d="M6.11102 9.9275C6.02102 10.0175 5.86102 10.0325 5.75602 9.9275C5.66602 9.8375 5.65102 9.6775 5.75602 9.5725L7.45102 7.8775L6.74602 7.1725L5.05102 8.8675C4.95602 8.9675 4.79602 8.9625 4.69602 8.8675C4.59102 8.7625 4.60602 8.6025 4.69602 8.5125L6.39102 6.8175L5.68602 6.1125L3.99102 7.8075C3.90102 7.8975 3.74102 7.9125 3.63602 7.8075C3.54102 7.7125 3.54102 7.5525 3.63602 7.4525L5.33102 5.7575L4.62102 5.0525L2.92602 6.7475C2.83602 6.8375 2.67602 6.8525 2.57102 6.7475C2.47602 6.6475 2.47602 6.4925 2.57102 6.3925L4.76102 4.2025L5.69602 5.1325C6.17102 5.6075 6.99102 5.6025 7.46602 5.1325C7.95602 4.6425 7.95602 3.8525 7.46602 3.3625L6.53602 2.4325L6.67602 2.2925C7.06602 1.9025 7.70102 1.9025 8.09102 2.2925L10.211 4.4125C10.601 4.8025 10.601 5.4375 10.211 5.8275L6.11102 9.9275ZM10.916 6.5375C11.696 5.7575 11.696 4.4925 10.916 3.7075L8.79602 1.5875C8.01602 0.807502 6.75102 0.807502 5.96602 1.5875L5.82602 1.7275L5.68602 1.5875C4.90602 0.807502 3.64102 0.807502 2.85602 1.5875L1.08602 3.3575C0.376023 4.0675 0.311023 5.1725 0.886023 5.9525L1.61102 5.2275C1.41602 4.8525 1.48102 4.3775 1.79602 4.0625L3.56602 2.2925C3.95602 1.9025 4.59102 1.9025 4.98102 2.2925L6.76102 4.0725C6.85102 4.1625 6.86602 4.3225 6.76102 4.4275C6.65602 4.5325 6.49602 4.5175 6.40602 4.4275L4.76102 2.7875L1.86102 5.6825C1.37102 6.1675 1.37102 6.9625 1.86102 7.4525C2.05602 7.6475 2.30602 7.7675 2.57102 7.8025C2.60602 8.0625 2.72102 8.3125 2.92102 8.5125C3.12102 8.7125 3.37102 8.8275 3.63102 8.8625C3.66602 9.1225 3.78102 9.3725 3.98102 9.5725C4.18102 9.7725 4.43102 9.8875 4.69102 9.9225C4.72602 10.1925 4.84602 10.4375 5.04102 10.6325C5.27602 10.8675 5.59102 10.9975 5.92602 10.9975C6.26102 10.9975 6.57602 10.8675 6.81102 10.6325L10.916 6.5375Z" fill="white"/>
</svg>
