<svg width="900" height="512" viewBox="0 0 900 512" fill="none" xmlns="http://www.w3.org/2000/svg">
<path d="M160.564 325H134.761V188.15H182.927C208.92 188.15 229.563 205.925 229.563 231.346C229.563 257.148 208.92 274.732 182.927 274.732H160.564V325ZM160.564 250.268H183.309C196.879 250.268 203.76 241.284 203.76 231.346C203.76 221.407 197.07 212.615 183.309 212.615H160.564V250.268ZM297.949 328.058C265.839 328.058 244.814 306.46 244.814 270.528V188.15H270.617V272.057C270.617 290.214 279.982 303.593 297.949 303.593C316.297 303.593 325.472 290.214 325.472 272.057V188.15H351.274V270.528C351.274 304.74 330.632 328.058 297.949 328.058ZM375.729 325V188.15H429.246C452.755 188.15 471.103 204.014 471.103 223.892C471.103 238.417 463.267 248.165 452.755 253.326V254.855C466.707 260.015 476.073 270.91 476.073 286.965C476.073 310.283 456.004 325 431.157 325H375.729ZM401.532 243.96H427.334C439.376 243.96 446.065 236.506 446.065 227.523C446.065 218.54 439.376 211.277 428.099 211.277H401.532V243.96ZM401.532 301.3H430.201C443.198 301.3 450.27 294.037 450.27 283.907C450.27 273.777 443.198 266.132 429.437 266.132H401.532V301.3Z" fill="#212121"/>
<path d="M494.292 324.267C492.737 322.649 491.462 320.596 490.466 318.107C489.533 315.557 489.066 312.632 489.066 309.335C489.066 305.975 489.813 301.495 491.306 295.896C492.861 290.296 494.821 283.919 497.186 276.764L505.025 253.526C516.162 221.173 522.601 196.162 524.343 178.492C524.903 173.266 527.454 170.653 531.996 170.653C534.858 170.653 537.222 171.337 539.089 172.706C542.697 175.443 544.44 178.492 544.315 181.852C544.191 185.211 543.6 189.318 542.542 194.171C541.484 198.961 540.115 204.219 538.436 209.943C536.756 215.605 534.827 221.609 532.649 227.955L519.77 265.845C512.367 287.372 508.665 301.278 508.665 307.562C508.665 310.921 510.033 312.601 512.771 312.601C515.384 312.601 517.748 312.041 519.864 310.921C522.041 309.801 523.441 309.242 524.063 309.242C525.37 309.242 526.023 309.895 526.023 311.201C526.023 316.739 523.192 321.374 517.531 325.107C513.735 327.658 510.251 328.933 507.078 328.933C503.967 328.933 501.447 328.56 499.519 327.813C497.59 327.067 495.848 325.885 494.292 324.267ZM593.498 209.569C592.129 211 590.574 212.183 588.832 213.116C587.089 213.987 585.254 214.547 583.325 214.796C581.397 214.982 579.561 214.671 577.819 213.862C576.139 213.054 574.677 211.903 573.433 210.409C570.757 207.299 569.42 204.157 569.42 200.984C569.42 197.81 569.917 195.446 570.913 193.891C571.971 192.273 573.277 190.967 574.833 189.971C577.819 188.042 580.619 187.078 583.232 187.078C585.907 187.078 587.96 187.265 589.391 187.638C590.885 188.011 592.253 188.633 593.498 189.504C596.546 191.558 598.071 194.077 598.071 197.064C598.071 199.988 597.635 202.446 596.764 204.437C595.955 206.365 594.867 208.076 593.498 209.569ZM574.366 310.548C575.984 310.548 576.792 311.606 576.792 313.721C576.792 316.521 575.517 319.414 572.966 322.4C569.233 326.756 564.225 328.933 557.941 328.933C550.723 328.933 545.777 326.009 543.102 320.161C542.106 318.107 541.609 315.619 541.609 312.695C541.609 309.77 542.106 306.535 543.102 302.989C544.16 299.38 545.435 295.616 546.928 291.696C548.484 287.714 550.164 283.701 551.968 279.657L556.914 267.898C560.523 259.126 562.327 253.339 562.327 250.54C562.327 247.74 562.016 245.904 561.394 245.033C560.834 244.1 560.212 243.385 559.527 242.887L557.661 241.58C557.039 241.145 556.727 240.398 556.727 239.34C556.727 238.221 557.132 237.163 557.941 236.167C558.812 235.172 559.932 234.301 561.3 233.554C564.1 232.123 567.367 231.408 571.1 231.408C580.246 231.408 584.819 233.803 584.819 238.594C584.819 244.193 583.356 250.602 580.432 257.819C577.508 264.974 575.019 270.76 572.966 275.178L567.367 288.057C563.26 297.514 561.207 304.326 561.207 308.495C561.207 311.232 562.576 312.601 565.313 312.601C567.989 312.601 570.011 312.259 571.38 311.575C572.748 310.89 573.744 310.548 574.366 310.548ZM598.164 318.947C597.231 316.894 596.764 314.468 596.764 311.668C596.764 308.868 597.2 305.788 598.071 302.429C598.942 299.007 600.062 295.523 601.431 291.976C602.799 288.43 604.324 284.821 606.003 281.15L610.763 270.325C616.923 256.077 619.194 247.678 617.576 245.127C616.829 243.945 615.398 242.762 613.283 241.58C612.599 241.145 612.256 240.398 612.256 239.34C612.256 238.221 612.692 237.163 613.563 236.167C614.496 235.172 615.709 234.301 617.203 233.554C620.189 232.123 623.207 231.408 626.255 231.408C629.304 231.408 631.606 231.75 633.161 232.434C634.779 233.056 636.117 233.865 637.174 234.861C639.165 236.914 640.161 239.403 640.161 242.327C640.161 245.251 639.601 248.549 638.481 252.219C637.361 255.89 635.961 259.748 634.281 263.792C632.601 267.836 630.766 271.973 628.775 276.204L623.269 288.43C619.349 297.451 617.389 303.424 617.389 306.348C617.389 312.072 619.411 314.934 623.455 314.934C633.846 314.934 643.583 308.775 652.666 296.456C657.955 289.301 661.75 281.524 664.052 273.124C665.11 269.142 665.639 265.534 665.639 262.299C665.639 259.001 665.514 256.264 665.265 254.086C665.079 251.908 664.737 249.98 664.239 248.3C663.43 245.313 662.061 242.731 660.132 240.554C658.826 238.936 659.417 237.038 661.906 234.861C664.643 232.559 668.532 231.408 673.571 231.408C676.682 231.408 679.42 232.87 681.784 235.794C684.771 239.278 686.264 244.287 686.264 250.82C686.264 257.29 685.299 263.667 683.371 269.951C681.442 276.173 678.798 282.177 675.438 287.963C672.078 293.687 668.096 299.038 663.492 304.015C658.95 308.993 654.035 313.317 648.747 316.988C637.423 324.951 626.1 328.933 614.776 328.933C606.626 328.933 601.088 325.605 598.164 318.947ZM696.343 295.336C696.592 289.923 697.494 284.759 699.049 279.844C700.605 274.866 702.689 270.076 705.302 265.472C707.915 260.805 710.964 256.419 714.448 252.313C717.995 248.144 721.821 244.504 725.927 241.394C734.824 234.736 743.815 231.408 752.898 231.408C763.538 231.408 770.63 235.794 774.177 244.567C775.421 247.553 776.012 251.099 775.95 255.206C775.888 259.25 775.11 263.014 773.617 266.498C772.124 269.92 770.039 273.062 767.364 275.924C764.751 278.724 761.609 281.244 757.938 283.484C754.329 285.723 750.379 287.621 746.086 289.176C737.251 292.287 727.794 293.905 717.715 294.029C717.466 294.9 717.31 296.207 717.248 297.949C717.186 299.691 717.372 301.651 717.808 303.829C718.243 305.944 718.99 307.842 720.048 309.521C722.288 313.255 725.523 315.121 729.754 315.121C736.971 315.121 744.001 313.006 750.845 308.775C753.272 307.344 755.232 305.882 756.725 304.389C758.28 302.833 759.618 302.055 760.738 302.055C761.858 302.055 762.822 302.74 763.631 304.109C764.502 305.415 764.937 306.908 764.937 308.588C764.937 311.886 764.004 314.748 762.138 317.174C754.298 325.014 742.633 328.933 727.14 328.933C717.995 328.933 710.653 326.196 705.116 320.721C698.894 314.499 695.97 306.037 696.343 295.336ZM750.845 243.82C744.312 243.82 738.028 248.3 731.993 257.259C726.892 264.974 722.785 274.12 719.674 284.697C730.065 283.639 739.086 279.533 746.739 272.378C753.769 265.658 757.285 259.219 757.285 253.059C757.285 246.9 755.138 243.82 750.845 243.82Z" fill="#E2201F"/>
</svg>
