<svg width="58" height="27" viewBox="0 0 58 27" fill="none" xmlns="http://www.w3.org/2000/svg">
<path d="M44.2609 0H0V27H44.2609H55L44.2609 0Z" fill="#FF881A"/>
<path d="M48 3H0V27H48H57.5L48 3Z" fill="#FFBF1A"/>
<path d="M11.3347 19V10.408H13.2187L16.6747 16.168H16.7707L16.6747 14.512V10.408H18.2827V19H16.5787L12.9307 12.916H12.8347L12.9307 14.572V19H11.3347ZM25.4546 11.944H21.6266V13.936H25.0706V15.472H21.6266V17.464H25.4546V19H20.0066V10.408H25.4546V11.944ZM28.6481 19L26.2721 10.408H27.9881L29.3201 15.424L29.5121 16.348H29.6081L29.8601 15.424L31.0961 11.56H32.6081L33.8561 15.424L34.0961 16.336H34.1921L34.3721 15.424L35.6201 10.408H37.3361L35.0561 19H33.4961L32.1521 14.86L31.9001 13.912H31.8041L31.5521 14.86L30.2081 19H28.6481Z" fill="white"/>
</svg>
