<svg width="16" height="16" viewBox="0 0 16 16" fill="none" xmlns="http://www.w3.org/2000/svg">
<path d="M11.4508 5.77556C12.4797 6.51368 13.7402 6.94797 15.1015 6.94797V4.31899C14.8439 4.31905 14.5869 4.29209 14.3348 4.23849V6.30787C12.9736 6.30787 11.7133 5.87358 10.6841 5.13552V10.5005C10.6841 13.1843 8.5162 15.3599 5.84206 15.3599C4.84428 15.3599 3.91688 15.0571 3.14648 14.538C4.02576 15.4402 5.25197 15.9999 6.60857 15.9999C9.28287 15.9999 11.4509 13.8244 11.4509 11.1404V5.77556H11.4508ZM12.3966 3.12325C11.8708 2.54674 11.5255 1.8017 11.4508 0.978035V0.639893H10.7243C10.9072 1.68677 11.5309 2.58117 12.3966 3.12325ZM4.83788 12.4785C4.54409 12.0919 4.38533 11.619 4.38604 11.1327C4.38604 9.90526 5.37765 8.91 6.60102 8.91C6.82901 8.90995 7.05564 8.94498 7.27292 9.01417V6.32643C7.019 6.29151 6.76273 6.27668 6.50657 6.28212V8.37412C6.28913 8.30493 6.0624 8.26979 5.83435 8.27001C4.61098 8.27001 3.61943 9.26517 3.61943 10.4928C3.61943 11.3608 4.11506 12.1124 4.83788 12.4785Z" fill="#FF004F"/>
<path d="M10.6843 5.13547C11.7135 5.87353 12.9738 6.30782 14.335 6.30782V4.23844C13.5752 4.07601 12.9025 3.67752 12.3968 3.12325C11.531 2.58111 10.9073 1.68672 10.7245 0.639893H8.81606V11.1403C8.81174 12.3645 7.82183 13.3557 6.60108 13.3557C5.88171 13.3557 5.24263 13.0115 4.83788 12.4785C4.11513 12.1124 3.61949 11.3608 3.61949 10.4929C3.61949 9.26533 4.61104 8.27007 5.83441 8.27007C6.0688 8.27007 6.29472 8.30669 6.50663 8.37418V6.28217C3.87947 6.33665 1.7666 8.49092 1.7666 11.1404C1.7666 12.463 2.29276 13.662 3.14671 14.538C3.9171 15.0571 4.8445 15.3599 5.84228 15.3599C8.51647 15.3599 10.6844 13.1843 10.6844 10.5005V5.13547H10.6843Z" fill="black"/>
<path d="M14.335 4.23853V3.67899C13.6498 3.68003 12.9781 3.48746 12.3968 3.12329C12.9114 3.68871 13.589 4.07858 14.335 4.23853ZM10.7245 0.639989C10.707 0.539941 10.6936 0.439234 10.6843 0.338143V0H8.04935V10.5005C8.04513 11.7245 7.05528 12.7157 5.83442 12.7157C5.476 12.7157 5.13759 12.6303 4.8379 12.4786C5.24264 13.0116 5.88173 13.3557 6.6011 13.3557C7.82173 13.3557 8.81181 12.3646 8.81607 11.1405V0.639989H10.7245ZM6.50676 6.28227V5.68659C6.28658 5.65639 6.06461 5.64124 5.84235 5.64135C3.16794 5.64129 1 7.81693 1 10.5005C1 12.183 1.85204 13.6658 3.14678 14.538C2.29283 13.662 1.76667 12.463 1.76667 11.1404C1.76667 8.49101 3.87949 6.33674 6.50676 6.28227Z" fill="#00F2EA"/>
</svg>
