<svg width="16" height="16" viewBox="0 0 16 16" fill="none" xmlns="http://www.w3.org/2000/svg">
<g clip-path="url(#clip0_28_1124)">
<path d="M16 8C16 3.58176 12.4182 0 8 0C3.58176 0 0 3.58176 0 8C0 11.7517 2.58304 14.8998 6.06752 15.7645V10.4448H4.41792V8H6.06752V6.94656C6.06752 4.22368 7.29984 2.9616 9.97312 2.9616C10.48 2.9616 11.3546 3.06112 11.7123 3.16032V5.37632C11.5235 5.35648 11.1955 5.34656 10.7882 5.34656C9.47648 5.34656 8.9696 5.84352 8.9696 7.13536V8H11.5827L11.1338 10.4448H8.9696V15.9414C12.9309 15.463 16.0003 12.0902 16.0003 8H16Z" fill="#0866FF"/>
<path d="M11.1334 10.4448L11.5824 8.00001H8.96928V7.13537C8.96928 5.84353 9.47616 5.34657 10.7878 5.34657C11.1952 5.34657 11.5232 5.35649 11.712 5.37633V3.16033C11.3542 3.06081 10.4797 2.96161 9.9728 2.96161C7.29952 2.96161 6.0672 4.22369 6.0672 6.94657V8.00001H4.4176V10.4448H6.0672V15.7645C6.68608 15.9181 7.33344 16 7.99968 16C8.32768 16 8.6512 15.9798 8.96896 15.9414V10.4448H11.1331H11.1334Z" fill="white"/>
</g>
<defs>
<clipPath id="clip0_28_1124">
<rect width="16" height="16" fill="white"/>
</clipPath>
</defs>
</svg>
