<svg width="16" height="16" viewBox="0 0 16 16" fill="none" xmlns="http://www.w3.org/2000/svg">
<path d="M11.451 5.77569C12.4799 6.5138 13.7404 6.94809 15.1017 6.94809V4.31911C14.8441 4.31917 14.5871 4.29221 14.335 4.23861V6.30799C12.9738 6.30799 11.7135 5.8737 10.6843 5.13564V10.5006C10.6843 13.1845 8.5164 15.36 5.84226 15.36C4.84448 15.36 3.91708 15.0573 3.14669 14.5381C4.02596 15.4403 5.25218 16 6.60877 16C9.28307 16 11.4511 13.8245 11.4511 11.1406V5.77569H11.451ZM12.3968 3.12337C11.871 2.54686 11.5257 1.80182 11.451 0.978157V0.640015H10.7245C10.9074 1.6869 11.5311 2.58129 12.3968 3.12337ZM4.83808 12.4786C4.5443 12.092 4.38554 11.6191 4.38625 11.1329C4.38625 9.90539 5.37785 8.91012 6.60122 8.91012C6.82922 8.91007 7.05585 8.9451 7.27312 9.01429V6.32655C7.0192 6.29163 6.76294 6.2768 6.50678 6.28224V8.37424C6.28934 8.30506 6.0626 8.26991 5.83455 8.27013C4.61118 8.27013 3.61963 9.26529 3.61963 10.4929C3.61963 11.361 4.11527 12.1125 4.83808 12.4786Z" fill="#FF004F"/>
<path d="M10.6843 5.13559C11.7135 5.87365 12.9738 6.30794 14.335 6.30794V4.23856C13.5752 4.07613 12.9025 3.67764 12.3968 3.12337C11.531 2.58123 10.9073 1.68684 10.7245 0.640015H8.81606V11.1404C8.81174 12.3646 7.82183 13.3558 6.60108 13.3558C5.88171 13.3558 5.24263 13.0117 4.83788 12.4786C4.11513 12.1125 3.61949 11.3609 3.61949 10.493C3.61949 9.26545 4.61104 8.27019 5.83441 8.27019C6.0688 8.27019 6.29472 8.30681 6.50663 8.3743V6.2823C3.87947 6.33677 1.7666 8.49104 1.7666 11.1405C1.7666 12.4631 2.29276 13.6621 3.14671 14.5381C3.9171 15.0573 4.8445 15.36 5.84228 15.36C8.51647 15.36 10.6844 13.1844 10.6844 10.5006V5.13559H10.6843Z" fill="black"/>
<path d="M14.335 4.23853V3.67899C13.6498 3.68003 12.9781 3.48746 12.3968 3.12329C12.9114 3.68871 13.589 4.07858 14.335 4.23853ZM10.7245 0.639989C10.707 0.539941 10.6936 0.439234 10.6843 0.338143V0H8.04935V10.5005C8.04513 11.7245 7.05528 12.7157 5.83442 12.7157C5.476 12.7157 5.13759 12.6303 4.8379 12.4786C5.24264 13.0116 5.88173 13.3557 6.6011 13.3557C7.82173 13.3557 8.81181 12.3646 8.81607 11.1405V0.639989H10.7245ZM6.50676 6.28227V5.68659C6.28658 5.65639 6.06461 5.64124 5.84235 5.64135C3.16794 5.64129 1 7.81693 1 10.5005C1 12.183 1.85204 13.6658 3.14678 14.538C2.29283 13.662 1.76667 12.463 1.76667 11.1404C1.76667 8.49101 3.87949 6.33674 6.50676 6.28227Z" fill="#00F2EA"/>
</svg>
