<svg width="48" height="31" viewBox="0 0 48 31" fill="none" xmlns="http://www.w3.org/2000/svg">
<path d="M43 31L48 24H43V31Z" fill="#1E1E1E" fill-opacity="0.5"/>
<path d="M0 0H48V24H0L9 12L0 0Z" fill="#C0C0C0"/>
<path d="M21.179 17H19.625L20.031 14.312H18.407L18.645 12.884H20.241L20.451 11.414H18.827L19.051 9.986H20.661L21.053 7.424H22.607L22.215 9.986H23.783L24.175 7.424H25.715L25.337 9.986H26.947L26.723 11.414H25.127L24.903 12.884H26.541L26.317 14.312H24.693L24.287 17H22.747L23.139 14.312H21.571L21.179 17ZM21.991 11.386L21.753 12.912H23.377L23.615 11.386H21.991ZM34.3001 17H27.9301V15.334C28.4761 14.788 28.9941 14.284 29.4561 13.822C30.2541 13.024 31.1361 12.156 31.4301 11.82C32.0321 11.106 32.3261 10.742 32.3261 10.084C32.3261 9.468 31.8081 8.936 30.9681 8.936C30.1281 8.936 29.6801 9.496 29.5121 10.098L27.8461 9.412C28.1541 8.39 29.1901 7.2 30.9961 7.2C32.9421 7.2 34.1601 8.432 34.1601 10C34.1601 11.19 33.4881 12.184 32.6481 13.038L31.4441 14.242C31.1221 14.564 30.7721 14.914 30.3661 15.306L30.4221 15.39H34.3001V17Z" fill="white"/>
</svg>
