<svg width="48" height="31" viewBox="0 0 48 31" fill="none" xmlns="http://www.w3.org/2000/svg">
<path d="M43 31L48 24H43V31Z" fill="#9E360F"/>
<path d="M0 0H48V24H0L9 12L0 0Z" fill="#FF4500"/>
<path d="M20.4739 17H18.9199L19.3259 14.312H17.7019L17.9399 12.884H19.5359L19.7459 11.414H18.1219L18.3459 9.986H19.9559L20.3479 7.424H21.9019L21.5099 9.986H23.0779L23.4699 7.424H25.0099L24.6319 9.986H26.2419L26.0179 11.414H24.4219L24.1979 12.884H25.8359L25.6119 14.312H23.9879L23.5819 17H22.0419L22.4339 14.312H20.8659L20.4739 17ZM21.2859 11.386L21.0479 12.912H22.6719L22.9099 11.386H21.2859ZM30.5431 17.224C29.0731 17.224 27.5891 16.412 27.1411 14.634L28.8071 13.99C29.0171 14.928 29.6191 15.53 30.5291 15.53C31.4251 15.53 32.1111 14.872 32.1111 13.948C32.1111 13.052 31.4531 12.366 30.5291 12.366C29.9551 12.366 29.5071 12.646 29.1851 13.024L27.4071 12.212L27.9671 7.424H33.3571V9.034H29.4931L29.1291 11.274L29.2411 11.302C29.6191 10.98 30.1371 10.728 30.9071 10.728C32.5031 10.728 33.9451 12.002 33.9451 13.948C33.9451 15.852 32.5171 17.224 30.5431 17.224Z" fill="white"/>
</svg>
