<svg width="48" height="31" viewBox="0 0 48 31" fill="none" xmlns="http://www.w3.org/2000/svg">
<path d="M43 31L48 24H43V31Z" fill="#996F12"/>
<path d="M0 0H48V24H0L9 12L0 0Z" fill="#CD7F32"/>
<path d="M20.5764 17H19.0224L19.4284 14.312H17.8044L18.0424 12.884H19.6384L19.8484 11.414H18.2244L18.4484 9.986H20.0584L20.4504 7.424H22.0044L21.6124 9.986H23.1804L23.5724 7.424H25.1124L24.7344 9.986H26.3444L26.1204 11.414H24.5244L24.3004 12.884H25.9384L25.7144 14.312H24.0904L23.6844 17H22.1444L22.5364 14.312H20.9684L20.5764 17ZM21.3884 11.386L21.1504 12.912H22.7744L23.0124 11.386H21.3884ZM30.6176 17.224C29.0636 17.224 27.6776 16.398 27.1876 14.704L28.9096 14.018C29.1476 14.956 29.7356 15.432 30.6176 15.432C31.4016 15.432 32.0736 14.928 32.0736 14.158C32.0736 13.332 31.4296 12.842 30.3656 12.842H29.5396V11.176H30.2956C31.0516 11.176 31.7516 10.812 31.7516 9.972C31.7516 9.342 31.2756 8.894 30.5056 8.894C29.6796 8.894 29.2736 9.412 29.1056 9.958L27.4256 9.272C27.7616 8.32 28.7556 7.2 30.5336 7.2C32.3676 7.2 33.6136 8.306 33.6136 9.762C33.6136 10.868 33.0116 11.582 32.4096 11.876V11.988C33.3056 12.338 33.9636 13.136 33.9636 14.326C33.9636 15.992 32.6336 17.224 30.6176 17.224Z" fill="white"/>
</svg>
