<svg width="821" height="232" viewBox="0 0 821 232" fill="none" xmlns="http://www.w3.org/2000/svg">
<path d="M39.5642 184H13.7615V47.1499H61.9266C87.9204 47.1499 108.563 64.9252 108.563 90.3456C108.563 116.148 87.9204 133.732 61.9266 133.732H39.5642V184ZM39.5642 109.268H62.3088C75.8792 109.268 82.7599 100.284 82.7599 90.3456C82.7599 80.4068 76.0703 71.6148 62.3088 71.6148H39.5642V109.268ZM176.949 187.058C144.839 187.058 123.814 165.46 123.814 129.528V47.1499H149.617V131.057C149.617 149.214 158.982 162.593 176.949 162.593C195.297 162.593 204.472 149.214 204.472 131.057V47.1499H230.274V129.528C230.274 163.74 209.632 187.058 176.949 187.058ZM254.729 184V47.1499H308.246C331.755 47.1499 350.103 63.0138 350.103 82.8915C350.103 97.4175 342.267 107.165 331.755 112.326V113.855C345.707 119.015 355.073 129.91 355.073 145.965C355.073 169.283 335.004 184 310.157 184H254.729ZM280.532 102.96H306.334C318.376 102.96 325.065 95.5062 325.065 86.523C325.065 77.5398 318.376 70.2768 307.099 70.2768H280.532V102.96ZM280.532 160.3H309.201C322.198 160.3 329.27 153.037 329.27 142.907C329.27 132.777 322.198 125.132 308.437 125.132H280.532V160.3Z" fill="#212121"/>
<rect x="382" y="33" width="439" height="164" rx="82" fill="#E2201F"/>
<circle cx="505.5" cy="115" r="36" fill="white" fill-opacity="0.5"/>
<circle cx="506" cy="115" r="19" fill="white"/>
<path d="M560.463 159V71.6309H573.541V159H560.463ZM594.066 85.4961C589.828 85.4961 586.438 82.1055 586.438 77.9883C586.438 73.8105 589.828 70.4199 594.066 70.4199C598.365 70.4199 601.695 73.8105 601.695 77.9883C601.695 82.1055 598.365 85.4961 594.066 85.4961ZM587.527 159V95.3047H600.605V159H587.527ZM631.605 159L608.658 95.3047H622.584L638.568 146.225H638.871L654.855 95.3047H668.479L645.652 159H631.605ZM700.75 160.271C682.041 160.271 670.719 147.496 670.719 127.395V127.334C670.719 107.414 682.223 94.0938 700.084 94.0938C717.945 94.0938 728.904 106.93 728.904 126.062V130.482H683.797C684.039 142.531 690.639 149.555 701.053 149.555C708.803 149.555 713.949 145.559 715.584 140.775L715.766 140.291H728.178L728.057 140.957C725.998 151.068 716.189 160.271 700.75 160.271ZM700.145 104.811C691.668 104.811 685.129 110.562 683.979 121.219H715.947C714.857 110.199 708.682 104.811 700.145 104.811Z" fill="white"/>
</svg>
